<svg width="21" height="16" viewBox="0 0 21 16" fill="none">
<path d="M12.12 10.38C12.6133 10.58 13.0333 10.8267 13.38 11.12C13.8333 11.5067 14.06 11.9867 14.06 12.56V14.38C14.0467 14.6467 13.9533 14.8733 13.78 15.06C13.62 15.2467 13.4 15.3533 13.12 15.38C12.84 15.42 12.4067 15.4333 11.82 15.42H2.24C1.96 15.42 1.73333 15.3733 1.56 15.28C1.18667 15.0667 1 14.7667 1 14.38V13.78C1.01333 13.26 1.01333 12.8667 1 12.6C0.986667 12.0267 1.22 11.5267 1.7 11.1C2.11333 10.7533 2.62667 10.4733 3.24 10.26C3.61333 10.1133 4.17333 9.86667 4.92 9.52L5.62 9.2C5.71333 9.14667 5.77333 9.06 5.8 8.94C5.82667 8.56667 5.85333 8.28667 5.88 8.1C5.89333 8.04667 5.87333 7.98 5.82 7.9C5.35333 7.43333 5.04 6.88667 4.88 6.26C4.84 6.16667 4.78 6.12 4.7 6.12C4.51333 6.09333 4.4 5.98667 4.36 5.8L4.2 4.84C4.16 4.62667 4.23333 4.48 4.42 4.4C4.48667 4.36 4.51333 4.30667 4.5 4.24C4.40667 3.73333 4.43333 3.20667 4.58 2.66C4.71333 2.16667 4.96 1.74667 5.32 1.4C5.69333 1.05333 6.1 0.873333 6.54 0.86H6.74C6.95333 0.846666 7.10667 0.813333 7.2 0.76C7.58667 0.559999 7.98 0.526666 8.38 0.66C9.5 1.03333 10.2133 1.76667 10.52 2.86C10.5733 3.06 10.5933 3.28 10.58 3.52C10.58 3.68 10.56 3.90667 10.52 4.2V4.22C10.5067 4.27333 10.5 4.31333 10.5 4.34C10.5133 4.36667 10.5533 4.38667 10.62 4.4C10.82 4.46667 10.9 4.6 10.86 4.8L10.7 5.8C10.66 6.01333 10.54 6.12 10.34 6.12C10.26 6.12 10.2067 6.16 10.18 6.24C10.1 6.78667 9.80667 7.31333 9.3 7.82C9.19333 7.9 9.15333 8.02 9.18 8.18C9.22 8.39333 9.24 8.62 9.24 8.86C9.25333 9.03333 9.33333 9.14667 9.48 9.2C10.5467 9.70667 11.4267 10.1 12.12 10.38ZM21 12.62V14.58C21 14.8067 20.9267 14.9933 20.78 15.14C20.6333 15.2867 20.4533 15.3667 20.24 15.38C19.9867 15.3933 19.62 15.4 19.14 15.4H14.68C14.6 15.4 14.5267 15.3933 14.46 15.38C14.5933 15.1933 14.6867 14.9733 14.74 14.72C14.7667 14.56 14.78 14.3333 14.78 14.04C14.7667 13.52 14.7667 13.0067 14.78 12.5C14.78 11.8867 14.5733 11.3533 14.16 10.9C14.1067 10.8333 14.08 10.7867 14.08 10.76C14.0933 10.72 14.14 10.6867 14.22 10.66C14.38 10.62 14.4733 10.5067 14.5 10.32V10.16C14.5267 10.0133 14.5267 9.92667 14.5 9.9C14.4733 9.87333 14.38 9.85333 14.22 9.84C13.38 9.81333 12.6467 9.64 12.02 9.32C11.9 9.25333 11.7867 9.18 11.68 9.1L11.78 9.02C11.9933 8.84667 12.1467 8.70667 12.24 8.6C12.3867 8.42667 12.5 8.20667 12.58 7.94C12.6333 7.78 12.6867 7.53333 12.74 7.2C12.78 7.01333 12.8067 6.71333 12.82 6.3L12.84 5.76C12.8933 5.12 13.0067 4.60667 13.18 4.22C13.5667 3.34 14.26 2.86 15.26 2.78C15.6467 2.72667 15.9533 2.74 16.18 2.82C16.38 2.87333 16.5067 2.96 16.56 3.08C16.6 3.17333 16.6467 3.23333 16.7 3.26C16.7667 3.27333 16.8533 3.28 16.96 3.28C17.5067 3.32 17.9 3.59333 18.14 4.1C18.3267 4.46 18.42 4.86 18.42 5.3C18.4333 5.46 18.44 5.7 18.44 6.02C18.44 6.32667 18.44 6.56 18.44 6.72C18.4933 7.48 18.7933 8.18667 19.34 8.84C19.4467 8.96 19.4933 9.04 19.48 9.08C19.48 9.12 19.4067 9.16667 19.26 9.22L19.24 9.24C18.52 9.58667 17.7867 9.78 17.04 9.82C16.9733 9.83333 16.9267 9.85333 16.9 9.88C16.8867 9.89333 16.8867 9.93333 16.9 10C16.9133 10.0533 16.92 10.1333 16.92 10.24C16.92 10.48 17.04 10.64 17.28 10.72C17.72 10.8533 18.3933 11.0267 19.3 11.24L19.52 11.3C19.9067 11.4067 20.2067 11.52 20.42 11.64C20.7933 11.8667 20.9867 12.1933 21 12.62Z" fill="#273958"/>
</svg>
